<svg version="1.1" id="Layer_1" xmlns="http://www.w3.org/2000/svg" xmlns:xlink="http://www.w3.org/1999/xlink" x="0px" y="0px"
	 width="100%" viewBox="0 0 1024 1024" enable-background="new 0 0 1024 1024" xml:space="preserve">
<path fill="#117ACE" opacity="1.000000" stroke="none" 
	d="
M719.603394,228.383072 
	C762.244202,263.875732 792.205322,307.852081 811.027344,359.447601 
	C833.283386,420.456635 839.471863,483.514587 834.024536,547.948303 
	C829.927063,596.416382 817.930054,642.813721 796.682861,686.606201 
	C776.507935,728.188660 748.213013,763.269470 711.270752,791.330383 
	C668.104309,824.119080 619.840637,836.682800 566.405396,827.808533 
	C530.545837,821.853088 499.410889,805.328064 471.517334,782.407227 
	C442.718597,758.742493 421.496918,729.114624 404.254639,696.411377 
	C381.513245,653.278137 368.299377,607.110596 362.628235,558.929749 
	C357.219910,512.981689 358.976959,467.107483 368.279236,421.633942 
	C375.840057,384.673492 387.533569,349.140045 405.954193,316.156952 
	C431.371948,270.645264 464.625488,231.968445 511.520386,207.839966 
	C576.952026,174.173904 641.522278,178.246735 703.895142,217.138916 
	C709.248535,220.476974 714.198242,224.462616 719.603394,228.383072 
M515.344055,428.827148 
	C493.454437,481.991486 493.200500,535.203003 515.844788,588.111084 
	C524.715576,608.837646 538.686584,625.945679 558.180420,637.668396 
	C586.067078,654.438110 617.991821,653.954651 646.070312,632.846375 
	C668.632751,615.884827 681.629822,592.531433 689.786926,566.290710 
	C700.753662,531.011658 701.558655,495.062408 693.782593,459.090729 
	C687.438538,429.743195 674.102539,404.121216 651.094910,383.975616 
	C625.014038,361.139038 586.255981,358.407623 557.339905,377.525757 
	C538.211609,390.172638 525.307983,407.774017 515.344055,428.827148 
z"/>
<path fill="#117ACE" opacity="1.000000" stroke="none" 
	d="
M234.113403,620.712097 
	C246.132034,660.146057 264.699768,695.663452 291.304352,726.707642 
	C316.103851,755.645508 346.109924,777.091370 382.959381,788.235779 
	C406.408478,795.327576 430.211151,795.816223 454.184998,791.926819 
	C458.010040,791.306274 460.764679,791.848938 463.735260,794.249634 
	C469.903412,799.234619 476.351746,803.872925 484.068512,809.698242 
	C473.837646,812.614319 464.950073,815.784607 455.796478,817.648438 
	C411.453491,826.677795 370.209412,818.052429 331.376526,795.456604 
	C294.363037,773.919495 265.782532,743.935303 243.439697,707.870056 
	C217.012405,665.211853 201.495834,618.534973 194.009888,569.043335 
	C187.071609,523.172363 187.152588,477.352264 195.671310,431.739777 
	C206.491058,373.806641 227.813675,320.188141 266.520660,275.101562 
	C315.769501,217.735611 377.979797,190.621094 454.228241,200.038834 
	C463.817535,201.223251 473.148438,204.499786 482.599091,206.807007 
	C482.658630,207.492508 482.718201,208.178009 482.777771,208.863525 
	C475.974274,214.007629 469.205261,219.198868 462.320526,224.231873 
	C461.523895,224.814270 460.070160,224.695084 458.945587,224.602783 
	C431.474548,222.347717 404.225403,223.877533 377.701752,231.487793 
	C353.918732,238.311722 333.016479,250.909134 314.050659,266.715424 
	C286.683655,289.523285 266.491821,317.788513 251.326660,349.783600 
	C218.600616,418.828186 210.608658,491.402252 221.714050,566.352844 
	C224.410965,584.554321 229.822800,602.353394 234.113403,620.712097 
z"/>
<path fill="#117ACE" opacity="1.000000" stroke="none" 
	d="
M340.097656,268.071228 
	C340.591949,267.807983 341.086273,267.544708 342.109314,267.021118 
	C345.426575,264.845520 348.215088,262.930267 351.003601,261.015015 
	C351.524811,260.786285 352.046021,260.557556 353.052246,260.068787 
	C354.385590,259.321564 355.233917,258.834351 356.082245,258.347107 
	C356.489044,258.188812 356.895874,258.030487 357.926758,257.669067 
	C367.440002,253.877167 376.025330,249.213989 387.285126,249.359390 
	C383.221069,252.341919 380.094482,254.636459 376.967896,256.931000 
	C376.967896,256.931000 376.944916,256.937164 376.601868,257.014404 
	C372.506012,260.046051 368.753235,263.000519 365.000458,265.954956 
	C365.000458,265.954956 364.948944,265.944916 364.642273,266.054504 
	C363.137848,267.351776 361.940063,268.539490 360.742279,269.727203 
	C360.742279,269.727203 361.000000,270.000000 360.573151,269.934814 
	C359.454681,270.590485 358.763062,271.311340 358.071411,272.032166 
	C357.750183,272.150330 357.481049,272.341736 356.892761,272.882782 
	C356.332367,273.428925 356.143188,273.698669 355.953979,273.968445 
	C347.655029,283.474823 338.695587,292.488586 331.173828,302.574554 
	C301.756317,342.020569 285.729523,387.181854 277.034698,435.068146 
	C268.446838,482.365356 268.160034,529.971130 276.097229,577.361450 
	C283.787750,623.278687 298.325470,666.833801 324.276886,706.067627 
	C338.368530,727.371582 355.325348,745.975281 375.010986,762.168823 
	C377.257385,764.016724 379.415558,765.971863 381.614655,767.877258 
	C381.368347,768.376465 381.122040,768.875671 380.875732,769.374878 
	C376.551086,768.106201 372.091187,767.176208 367.924438,765.512146 
	C346.179382,756.827820 329.024170,741.884094 313.816010,724.612671 
	C290.218475,697.813660 274.575745,666.611084 263.315765,632.888428 
	C247.795837,586.407593 242.502838,538.593018 244.805527,489.973541 
	C245.834259,468.252502 249.623764,446.662170 252.363693,424.305328 
	C255.028183,414.058563 257.489349,404.519043 259.950500,394.979492 
	C259.950500,394.979492 260.145905,394.638733 260.395752,394.170166 
	C261.403748,391.129425 262.161865,388.557251 262.919952,385.985046 
	C263.052307,385.663818 263.184692,385.342590 263.587891,384.489807 
	C265.244110,379.642761 266.629517,375.327301 268.014923,371.011810 
	C268.238708,370.763977 268.391602,370.478241 268.743683,369.655273 
	C272.325623,361.437622 275.637512,353.719269 278.949371,346.000916 
	C278.949371,346.000916 279.174683,345.693787 279.472992,345.284241 
	C283.601288,338.099854 287.103119,331.111572 291.338470,324.600464 
	C297.642303,314.909454 304.464264,305.555542 311.065765,296.058167 
	C311.357208,295.893127 311.590698,295.667999 312.097046,295.089447 
	C312.719940,294.598328 312.851074,294.323700 312.821228,293.972198 
	C312.821228,293.972198 313.096832,293.727692 313.482727,293.431763 
	C318.602997,288.103790 323.337341,283.071777 328.071686,278.039734 
	C328.369476,277.918518 328.619568,277.733002 329.247009,277.201294 
	C330.568878,276.022705 331.465729,275.126038 332.362549,274.229370 
	C333.140656,273.645111 333.918762,273.060822 335.150269,272.154449 
	C336.495819,270.990540 337.387939,270.148712 338.280090,269.306885 
	C338.280060,269.306854 338.216644,269.272339 338.517334,269.277527 
	C339.244537,268.878876 339.671082,268.475067 340.097656,268.071228 
z"/>
<path fill="#117ACE" opacity="1.000000" stroke="none" 
	d="
M323.081757,600.963928 
	C323.155151,601.400513 323.228546,601.837036 323.378021,602.958313 
	C325.736786,611.992188 328.019440,620.341370 330.302124,628.690552 
	C330.463013,629.281006 330.623901,629.871460 330.938782,631.107544 
	C336.091187,644.164185 341.089630,656.575134 346.088043,668.986084 
	C346.238800,669.538269 346.389557,670.090515 346.726013,671.160767 
	C347.148773,671.969971 347.385803,672.261169 347.622864,672.552368 
	C347.622833,672.552368 347.706360,672.831421 347.822449,673.234680 
	C348.278229,674.121521 348.617889,674.605042 348.957520,675.088623 
	C348.957520,675.088623 349.047699,675.519775 349.154175,676.025024 
	C349.803955,677.400024 350.347260,678.269775 350.890594,679.139587 
	C351.064789,679.592407 351.238983,680.045288 351.559570,680.910217 
	C351.731720,681.548096 351.857269,681.645569 352.082520,681.614746 
	C352.082520,681.614746 352.111267,681.819397 352.203644,682.115723 
	C352.407928,682.728333 352.619507,682.949280 352.930756,683.074768 
	C352.930756,683.074768 352.998383,683.000000 352.995544,683.389343 
	C357.232819,690.676086 361.472870,697.573486 365.712952,704.470886 
	C365.712952,704.470886 365.812286,704.768250 365.987823,705.213623 
	C369.409668,710.132202 372.655945,714.605408 375.902252,719.078552 
	C375.902252,719.078552 375.988770,719.016602 376.004150,719.393738 
	C379.196655,723.636536 382.373810,727.502258 385.550934,731.367920 
	C385.550934,731.367920 385.546448,731.420654 385.648254,731.752808 
	C387.743164,734.185303 389.736237,736.285645 391.729340,738.385925 
	C392.060974,738.806152 392.392609,739.226379 393.058044,740.092285 
	C394.921631,742.012268 396.451447,743.486572 397.981262,744.960876 
	C398.178650,745.233398 398.376007,745.505981 398.882996,746.121094 
	C399.393036,746.751709 399.668549,746.902893 400.019104,746.917175 
	C400.527771,747.501343 401.036407,748.085510 401.853760,749.071533 
	C402.438507,749.641174 402.714539,749.808838 402.990601,749.976440 
	C402.990601,749.976440 402.980743,750.027527 403.122437,750.309265 
	C404.547516,751.611084 405.830902,752.631165 407.114288,753.651306 
	C407.114288,753.651306 407.355804,753.981567 407.643677,754.402954 
	C411.969452,758.195679 416.007324,761.567139 420.045197,764.938538 
	C420.045197,764.938538 420.002441,764.996460 420.137421,765.292969 
	C423.814545,768.655823 427.356720,771.722290 430.898865,774.788696 
	C430.870422,774.978271 430.841980,775.167847 430.416077,775.555298 
	C426.640106,775.343323 423.261597,774.933411 419.883087,774.523499 
	C419.486389,774.366089 419.089691,774.208618 418.142792,773.752441 
	C413.405121,771.286438 409.217712,769.119080 405.030304,766.951721 
	C405.030304,766.951721 404.801117,766.733032 404.470886,766.418823 
	C403.212646,765.572083 402.284637,765.039551 401.356628,764.507080 
	C401.170441,764.267639 400.937439,764.089355 400.322998,763.633667 
	C399.311554,762.908752 398.634796,762.522339 397.958038,762.135925 
	C397.958038,762.135925 397.712585,761.886963 397.412659,761.545532 
	C396.413422,760.798462 395.714111,760.392761 395.014801,759.987000 
	C395.014801,759.987000 395.000000,760.000000 394.905029,759.784302 
	C394.581238,759.316711 394.298737,759.217224 393.962555,759.270020 
	C393.962555,759.270020 393.704407,758.965149 393.386292,758.574707 
	C391.796539,757.325256 390.524933,756.466248 389.253326,755.607239 
	C389.111816,755.333130 388.904419,755.124573 388.253662,754.621277 
	C385.253601,752.195618 382.630951,750.130249 380.008270,748.064880 
	C379.628571,747.699768 379.248871,747.334656 378.491791,746.566956 
	C376.970367,745.274353 375.826294,744.384338 374.682220,743.494324 
	C374.682220,743.494324 374.631226,743.352234 374.440277,743.061584 
	C373.161713,741.876526 372.074097,740.982056 370.986450,740.087646 
	C368.838989,737.847839 366.691528,735.608032 364.216248,732.924133 
	C363.613220,732.299194 363.337952,732.118347 363.062683,731.937561 
	C363.062683,731.937561 363.000000,732.000000 362.964050,731.720703 
	C362.651672,731.254944 362.375244,731.068542 362.098785,730.882141 
	C326.100708,691.226685 305.525635,643.990906 294.001190,592.309570 
	C288.840881,569.168213 286.253967,545.714355 285.554382,521.124023 
	C286.107269,504.463531 286.166443,488.684937 287.275970,472.980591 
	C288.197388,459.938538 290.354797,446.983856 291.964691,433.990448 
	C292.157104,433.193481 292.349518,432.396515 292.751099,430.965149 
	C294.095825,424.842316 295.231384,419.353821 296.366882,413.865356 
	C296.513489,413.464844 296.660095,413.064331 296.941711,412.101074 
	C297.055756,411.359955 297.034821,411.181671 297.013916,411.003387 
	C297.013916,411.003387 297.165405,410.658081 297.363403,410.300232 
	C297.596802,409.614807 297.632172,409.287170 297.667542,408.959564 
	C297.801453,408.567139 297.935364,408.174683 298.305817,407.170013 
	C301.907654,396.005798 305.272919,385.453827 308.638184,374.901855 
	C308.781097,374.530823 308.924011,374.159821 309.369904,373.263245 
	C312.543427,365.916260 315.414001,359.094879 318.284546,352.273468 
	C318.284546,352.273468 318.286316,352.241425 318.548767,352.053864 
	C318.953125,351.287231 319.095062,350.708160 319.237000,350.129089 
	C319.237000,350.129089 319.134308,350.111603 319.439941,349.968018 
	C320.117950,348.866364 320.490326,347.908264 320.862671,346.950195 
	C321.095886,346.706360 321.272552,346.426788 321.719513,345.654541 
	C324.005096,341.466980 325.963806,337.736389 327.922485,334.005768 
	C328.106476,333.726959 328.290466,333.448151 328.824646,332.730347 
	C334.112640,324.873657 339.050385,317.455902 343.988129,310.038177 
	C343.988129,310.038177 344.037689,310.038452 344.250244,309.924683 
	C344.748108,309.606232 344.879303,309.328705 344.856415,308.978302 
	C345.124146,308.692200 345.391876,308.406097 345.941589,307.822449 
	C346.423737,307.373962 346.472748,307.184021 346.370605,306.955109 
	C346.506989,306.819397 346.643402,306.683655 347.199646,306.134766 
	C352.405518,300.143036 357.191498,294.564484 361.977478,288.985901 
	C361.977478,288.985901 362.209625,288.835510 362.554749,288.614685 
	C363.276123,287.938232 363.652405,287.482635 364.028656,287.027039 
	C364.028656,287.027039 364.001190,286.999512 364.344360,286.949371 
	C369.462738,282.274872 374.237976,277.650543 379.013214,273.026184 
	C379.311554,272.890381 379.564240,272.695374 380.211914,272.169739 
	C381.730621,270.922974 382.808655,269.947693 383.886688,268.972412 
	C385.461945,267.819641 387.037201,266.666870 389.075378,265.212280 
	C389.769440,264.652405 390.000519,264.394348 390.231628,264.136292 
	C390.694214,263.867249 391.156799,263.598206 392.119873,263.079102 
	C393.540253,261.965759 394.460144,261.102478 395.380035,260.239197 
	C395.380035,260.239197 395.717285,260.078766 396.083496,259.919250 
	C396.773682,259.621643 396.982605,259.382874 397.076447,259.043396 
	C397.923096,258.511719 398.769714,257.980072 400.065125,257.165955 
	C400.747894,256.633057 400.981903,256.382568 401.215942,256.132080 
	C401.703766,255.907257 402.191559,255.682434 403.192566,255.174271 
	C405.949738,253.374344 408.193756,251.857758 410.437775,250.341171 
	C410.437775,250.341171 410.767578,250.256256 411.183716,250.136810 
	C412.014587,249.644241 412.429321,249.271118 412.844055,248.898010 
	C412.844055,248.897995 412.906952,248.919678 413.271790,248.840057 
	C418.747009,246.798355 423.857391,244.836273 428.967773,242.874207 
	C429.418518,242.854401 429.869232,242.834610 430.897644,242.838074 
	C431.649231,242.829376 431.823120,242.797409 431.997009,242.765427 
	C432.573486,243.078796 433.149933,243.392151 434.007690,244.227936 
	C433.108063,246.741119 431.927094,248.731873 430.746155,250.722626 
	C430.746155,250.722626 430.967957,250.996613 430.512360,250.885651 
	C428.412170,251.876892 426.767578,252.979080 425.122986,254.081268 
	C425.122986,254.081284 425.069702,254.041779 424.749207,254.112244 
	C423.312347,255.132065 422.195984,256.081421 421.079620,257.030792 
	C421.079620,257.030792 421.020020,257.012634 420.695984,257.107910 
	C418.149719,259.138733 415.927490,261.074249 413.705292,263.009766 
	C411.917938,264.462280 410.130554,265.914795 407.839539,267.724976 
	C406.418610,268.963318 405.501312,269.844055 404.584015,270.724792 
	C403.531158,271.696838 402.478302,272.668854 401.004517,273.947144 
	C400.282318,274.433350 400.118073,274.698273 400.090912,275.048218 
	C400.090912,275.048218 400.030579,275.028381 399.801392,275.121796 
	C399.264801,275.391266 399.086243,275.654694 399.036530,276.005493 
	C398.710846,276.108948 398.441437,276.294189 397.868347,276.858551 
	C397.344635,277.438019 397.180817,277.720184 397.016998,278.002319 
	C396.719269,278.145142 396.468536,278.346466 395.888000,278.875366 
	C395.351685,279.431732 395.192169,279.719055 395.032654,280.006348 
	C393.826996,281.217163 392.621368,282.427948 390.935974,284.023010 
	C388.669250,286.620453 386.882324,288.833679 385.095428,291.046875 
	C384.721619,291.411987 384.347839,291.777130 383.570740,292.520569 
	C382.448669,293.933990 381.729919,294.969116 381.011169,296.004242 
	C381.011169,296.004242 380.998779,295.998779 380.773071,296.098267 
	C380.268799,296.428375 380.148956,296.723419 380.187866,297.082947 
	C380.187866,297.082947 380.104919,297.099548 379.816467,297.287445 
	C376.000488,302.291168 372.472931,307.106995 368.945374,311.922791 
	C368.595825,312.307861 368.246307,312.692902 367.517395,313.508057 
	C365.806519,315.971649 364.475037,318.005127 363.143524,320.038605 
	C363.143524,320.038605 362.875305,320.276428 362.591492,320.610535 
	C362.213928,321.294098 362.120148,321.643585 362.026367,321.993073 
	C361.679474,322.406708 361.332550,322.820312 360.626160,323.686768 
	C357.828094,328.411530 355.389526,332.683472 352.950928,336.955383 
	C352.748474,337.214752 352.588043,337.497955 352.140869,338.213440 
	C351.487640,339.369354 351.163147,340.116791 350.838684,340.864227 
	C350.838684,340.864227 351.000000,341.000000 350.643860,341.129761 
	C348.180695,345.829590 346.073700,350.399689 343.966705,354.969788 
	C343.966705,354.969788 344.000000,354.998779 343.722412,355.189331 
	C342.993835,356.598419 342.542816,357.816956 342.091827,359.035522 
	C342.091827,359.035522 341.882263,359.333191 341.643585,359.677094 
	C341.349792,360.361084 341.294678,360.701141 341.239563,361.041229 
	C340.777130,362.020233 340.314728,362.999237 339.537109,364.538879 
	C337.837036,369.074249 336.452148,373.048950 335.067261,377.023651 
	C334.863251,377.289124 334.709137,377.580994 334.309631,378.402130 
	C329.199921,396.157471 323.600037,413.240021 319.820648,430.716217 
	C316.820160,444.590942 316.047974,458.947540 314.286407,473.090179 
	C314.214264,473.820831 314.142120,474.551453 313.929993,476.017212 
	C313.671875,497.049286 313.449310,517.346558 313.512543,537.642944 
	C313.527435,542.426575 314.505188,547.207092 315.039978,551.989075 
	C315.045410,552.427307 315.050873,552.865601 315.036743,554.018799 
	C315.352661,556.818848 315.688080,558.903809 316.023499,560.988831 
	C316.063843,561.727844 316.104187,562.466797 316.158173,563.983521 
	C318.475128,576.828735 320.778442,588.896362 323.081757,600.963928 
z"/>
<path fill="#117ACE" opacity="1.000000" stroke="none" 
	d="
M345.922760,497.964905 
	C345.940399,503.334869 345.958069,508.704803 345.766479,514.918152 
	C343.309784,537.681274 346.472626,559.333862 349.743866,580.835571 
	C352.058899,596.052185 356.065582,611.065613 360.141479,625.943909 
	C363.679138,638.857361 368.237671,651.501038 372.619568,664.168945 
	C374.623322,669.961731 377.079681,675.624023 379.699310,681.171509 
	C383.734619,689.716919 388.074371,698.118835 392.309662,706.569275 
	C394.899048,711.735657 397.534637,716.878845 400.149445,722.032471 
	C399.763489,722.270630 399.377533,722.508728 398.991547,722.746887 
	C397.975800,721.531372 396.814636,720.409119 395.966797,719.085999 
	C387.373535,705.675964 378.195953,692.586914 370.463074,678.694824 
	C363.466949,666.126282 357.531372,652.886047 352.139984,639.533386 
	C348.367188,630.189392 346.190552,620.187134 343.496338,610.424988 
	C340.502380,599.576965 336.957642,588.800598 335.055237,577.751587 
	C332.631256,563.673340 330.676849,549.386108 330.171570,535.130432 
	C328.842621,497.639435 330.377655,460.366791 338.813538,423.481445 
	C344.263641,399.651215 353.013641,377.115997 361.751160,354.484802 
	C362.283997,353.104736 363.182953,351.861084 363.951019,350.577576 
	C368.984100,342.166473 373.857697,333.653015 379.133606,325.396820 
	C382.197083,320.602875 385.912415,316.225433 389.334412,311.660553 
	C389.974182,312.016937 390.613953,312.373291 391.253754,312.729645 
	C389.323364,316.915405 387.472290,321.139893 385.449829,325.280670 
	C372.413147,351.971832 362.396912,379.738983 355.963867,408.746979 
	C352.872467,422.686707 349.333160,436.610992 347.572815,450.738647 
	C345.767609,465.226440 345.866638,479.953125 345.203613,494.578491 
	C345.153015,495.694122 345.669739,496.835510 345.922760,497.964905 
z"/>
<path fill="#117ACE" opacity="1.000000" stroke="none" 
	d="
M346.032898,497.575531 
	C345.669739,496.835510 345.153015,495.694122 345.203613,494.578491 
	C345.866638,479.953125 345.767609,465.226440 347.572815,450.738647 
	C349.333160,436.610992 352.872467,422.686707 355.963867,408.746979 
	C362.396912,379.738983 372.413147,351.971832 385.449829,325.280670 
	C387.472290,321.139893 389.323364,316.915405 391.253754,312.729645 
	C390.613953,312.373291 389.974182,312.016937 389.334412,311.660553 
	C385.912415,316.225433 382.197083,320.602875 379.133606,325.396820 
	C373.857697,333.653015 368.984100,342.166473 363.951019,350.577576 
	C363.182953,351.861084 362.283997,353.104736 361.751160,354.484802 
	C353.013641,377.115997 344.263641,399.651215 338.813538,423.481445 
	C330.377655,460.366791 328.842621,497.639435 330.171570,535.130432 
	C330.676849,549.386108 332.631256,563.673340 335.055237,577.751587 
	C336.957642,588.800598 340.502380,599.576965 343.496338,610.424988 
	C346.190552,620.187134 348.367188,630.189392 352.139984,639.533386 
	C357.531372,652.886047 363.466949,666.126282 370.463074,678.694824 
	C378.195953,692.586914 387.373535,705.675964 395.966797,719.085999 
	C396.814636,720.409119 397.975800,721.531372 398.991547,722.746887 
	C399.377533,722.508728 399.763489,722.270630 400.149445,722.032471 
	C397.534637,716.878845 394.899048,711.735657 392.309662,706.569275 
	C388.074371,698.118835 383.734619,689.716919 379.699310,681.171509 
	C377.079681,675.624023 374.623322,669.961731 372.619568,664.168945 
	C368.237671,651.501038 363.679138,638.857361 360.141479,625.943909 
	C356.065582,611.065613 352.058899,596.052185 349.743866,580.835571 
	C346.472626,559.333862 343.309784,537.681274 345.714264,515.383606 
	C348.000610,536.362427 349.636902,557.782898 352.385040,579.059753 
	C355.765686,605.233765 362.835938,630.577209 371.833527,655.379578 
	C380.716492,679.865906 391.943787,703.240173 404.957550,725.784912 
	C406.182922,727.907837 406.803253,730.380005 407.704529,732.690002 
	C407.244965,732.993896 406.785400,733.297729 406.325836,733.601562 
	C404.911377,732.381042 403.319214,731.314453 402.108978,729.917114 
	C382.654785,707.453430 367.334412,682.371338 355.753876,655.073975 
	C331.778717,598.560181 324.210114,539.477356 328.489349,478.533051 
	C331.627991,433.833405 342.144623,391.061768 361.769257,350.760376 
	C371.573181,330.626892 384.361023,312.317810 399.586670,295.804077 
	C400.762726,294.528564 402.134460,293.433472 404.155731,292.678070 
	C387.749817,324.560638 371.680878,356.486908 362.538452,391.278534 
	C353.413086,426.005280 347.230103,461.205994 346.032898,497.575531 
z"/>
</svg>