<svg xmlns="http://www.w3.org/2000/svg" version="1.1" xmlns:xlink="http://www.w3.org/1999/xlink" width="1000" height="1000"><g clip-path="url(#SvgjsClipPath1069)"><rect width="1000" height="1000" fill="#ffffff"></rect><g transform="matrix(1.2328767123287672,0,0,1.2328767123287672,72.1917808219178,50)"><svg xmlns="http://www.w3.org/2000/svg" version="1.1" xmlns:xlink="http://www.w3.org/1999/xlink" width="694" height="730"><svg xmlns="http://www.w3.org/2000/svg" viewBox="162 134 694 730">
	<path fill="#117ACE" d="M719.603 228.383c42.641 35.493 72.602 79.47 91.424 131.065 22.256 61.009 28.445 124.067 22.998 188.5-4.098 48.468-16.095 94.866-37.342 138.658-20.175 41.583-48.47 76.663-85.412 104.724-43.167 32.79-91.43 45.353-144.866 36.479-35.86-5.956-66.994-22.48-94.888-45.402-28.798-23.665-50.02-53.292-67.262-85.996-22.742-43.133-35.956-89.3-41.627-137.481-5.408-45.948-3.651-91.823 5.651-137.296 7.561-36.96 19.255-72.494 37.675-105.477 25.418-45.512 58.671-84.189 105.566-108.317 65.432-33.666 130.002-29.593 192.375 9.299 5.354 3.338 10.303 7.324 15.708 11.244M515.344 428.827c-21.89 53.164-22.144 106.376.5 159.284 8.872 20.727 22.843 37.835 42.336 49.557 27.887 16.77 59.812 16.287 87.89-4.822 22.563-16.961 35.56-40.315 43.717-66.555 10.967-35.28 11.772-71.229 3.996-107.2-6.344-29.348-19.68-54.97-42.688-75.115-26.081-22.837-64.839-25.568-93.755-6.45-19.128 12.647-32.032 30.248-41.996 51.301z"></path>
	<path fill="#117ACE" d="M234.113 620.712c12.019 39.434 30.587 74.951 57.191 105.996 24.8 28.938 54.806 50.383 91.655 61.528 23.45 7.092 47.252 7.58 71.226 3.69 3.825-.62 6.58-.077 9.55 2.324 6.168 4.985 12.617 9.623 20.334 15.448-10.231 2.916-19.119 6.087-28.273 7.95-44.343 9.03-85.587.404-124.42-22.191-37.013-21.538-65.593-51.522-87.936-87.587-26.428-42.658-41.944-89.335-49.43-138.827-6.938-45.87-6.857-91.69 1.661-137.303 10.82-57.933 32.143-111.552 70.85-156.638 49.249-57.366 111.459-84.48 187.707-75.063 9.59 1.184 18.92 4.46 28.371 6.768l.179 2.057c-6.804 5.144-13.573 10.335-20.457 15.368-.797.582-2.25.463-3.375.37-27.471-2.254-54.72-.724-81.244 6.886-23.783 6.824-44.686 19.421-63.651 35.227-27.367 22.808-47.56 51.074-62.724 83.069-32.726 69.044-40.718 141.618-29.613 216.569 2.697 18.201 8.109 36 12.4 54.36z"></path>
	<path fill="#117ACE" d="M340.098 268.071c.494-.263.988-.526 2.011-1.05 3.318-2.175 6.106-4.09 8.895-6.006.52-.229 1.042-.457 2.048-.946a294.059 294.059 0 003.03-1.722c.407-.158.814-.317 1.845-.678 9.513-3.792 18.098-8.455 29.358-8.31l-10.317 7.572-.366.083c-4.096 3.032-7.849 5.987-11.602 8.941 0 0-.051-.01-.358.1-1.504 1.297-2.702 2.484-3.9 3.672 0 0 .258.273-.169.208-1.118.655-1.81 1.376-2.502 2.097-.32.118-.59.31-1.178.85-.56.547-.75.817-.939 1.086-8.299 9.507-17.258 18.52-24.78 28.607-29.418 39.446-45.444 84.607-54.14 132.493-8.587 47.297-8.874 94.903-.937 142.293 7.69 45.918 22.228 89.473 48.18 128.707 14.092 21.304 31.048 39.907 50.734 56.1 2.246 1.849 4.405 3.804 6.604 5.71l-.74 1.497c-4.324-1.269-8.784-2.199-12.95-3.863-21.746-8.684-38.9-23.628-54.109-40.9-23.598-26.798-39.24-58-50.5-91.724-15.52-46.48-20.813-94.295-18.51-142.914 1.028-21.721 4.818-43.312 7.558-65.669 2.664-10.246 5.125-19.786 7.586-29.326 0 0 .196-.34.446-.809 1.008-3.04 1.766-5.613 2.524-8.185.132-.321.265-.642.668-1.495 1.656-4.847 3.042-9.163 4.427-13.478.224-.248.377-.534.729-1.357a4406.923 4406.923 0 0010.205-23.654s.226-.307.524-.717c4.128-7.184 7.63-14.172 11.865-20.684 6.304-9.69 13.126-19.044 19.728-28.542.291-.165.525-.39 1.031-.969.623-.49.754-.765.724-1.117 0 0 .276-.244.662-.54 5.12-5.328 9.854-10.36 14.589-15.392.297-.121.548-.307 1.175-.839a68.62 68.62 0 003.116-2.972c.778-.584 1.556-1.168 2.787-2.075 1.346-1.163 2.238-2.005 3.13-2.847 0 0-.063-.035.237-.03.728-.398 1.154-.802 1.58-1.206z"></path>
	<path fill="#117ACE" d="M323.082 600.964c.073.437.147.873.296 1.994 2.359 9.034 4.641 17.383 6.924 25.733.161.59.322 1.18.637 2.417 5.152 13.056 10.15 25.467 15.149 37.878.15.552.302 1.105.638 2.175.423.809.66 1.1.897 1.391l.2.683c.455.887.795 1.37 1.135 1.854l.196.936c.65 1.375 1.193 2.245 1.737 3.115.174.452.348.905.669 1.77.172.638.297.736.523.705 0 0 .028.204.12.5.205.613.417.834.728.96 0 0 .067-.075.065.314 4.237 7.287 8.477 14.184 12.717 21.082 0 0 .1.297.275.743 3.422 4.918 6.668 9.391 9.914 13.865 0 0 .087-.062.102.315 3.193 4.243 6.37 8.108 9.547 11.974 0 0-.005.053.097.385 2.095 2.432 4.088 4.533 6.081 6.633.332.42.664.84 1.329 1.706 1.864 1.92 3.393 3.395 4.923 4.869.198.272.395.545.902 1.16.51.63.786.782 1.136.796.509.584 1.017 1.169 1.835 2.155.585.57.86.737 1.137.904 0 0-.01.052.131.333 1.426 1.302 2.709 2.322 3.992 3.342 0 0 .242.33.53.752 4.325 3.793 8.363 7.164 12.401 10.536 0 0-.043.057.092.354 3.678 3.363 7.22 6.43 10.762 9.496-.029.19-.057.379-.483.766-3.776-.212-7.154-.622-10.533-1.032a22.578 22.578 0 01-1.74-.77c-4.738-2.467-8.925-4.634-13.113-6.801l-.56-.533c-1.257-.847-2.185-1.38-3.113-1.912-.187-.24-.42-.418-1.034-.873-1.011-.725-1.688-1.112-2.365-1.498 0 0-.245-.249-.545-.59-1-.748-1.699-1.153-2.398-1.559 0 0-.015.013-.11-.203-.324-.467-.606-.567-.942-.514 0 0-.259-.305-.577-.695-1.59-1.25-2.861-2.109-4.133-2.968-.141-.274-.349-.482-1-.986-3-2.425-5.622-4.49-8.245-6.556-.38-.365-.76-.73-1.516-1.498a103.706 103.706 0 00-3.81-3.073s-.05-.142-.242-.432c-1.278-1.185-2.366-2.08-3.454-2.974a484.076 484.076 0 01-6.77-7.164c-.603-.625-.878-.806-1.153-.986 0 0-.063.062-.099-.217-.312-.466-.589-.652-.865-.839C326.1 691.227 305.526 643.991 294 592.31c-5.16-23.142-7.747-46.596-8.447-71.186.553-16.66.612-32.44 1.722-48.143.921-13.042 3.079-25.997 4.689-38.99.192-.798.385-1.594.786-3.026 1.345-6.123 2.48-11.611 3.616-17.1.146-.4.293-.8.575-1.764.114-.741.093-.92.072-1.098 0 0 .151-.345.35-.703.233-.685.268-1.013.304-1.34.133-.393.267-.785.638-1.79a9911.67 9911.67 0 0010.332-32.268c.143-.371.286-.742.732-1.639 3.173-7.347 6.044-14.168 8.915-20.99 0 0 .001-.032.264-.22.404-.766.546-1.345.688-1.924 0 0-.103-.017.203-.161.678-1.102 1.05-2.06 1.423-3.018.233-.244.41-.523.857-1.295 2.285-4.188 4.244-7.919 6.202-11.65.184-.278.368-.557.903-1.275 5.288-7.856 10.225-15.274 15.163-22.692 0 0 .05 0 .262-.113.498-.319.63-.596.606-.947l1.086-1.156c.482-.448.53-.638.429-.867.136-.136.272-.271.829-.82 5.206-5.992 9.991-11.57 14.777-17.15l.578-.37a14.97 14.97 0 001.474-1.588s-.028-.027.315-.078c5.119-4.674 9.894-9.298 14.67-13.923.298-.136.55-.33 1.198-.856a93.094 93.094 0 003.675-3.198c1.575-1.152 3.15-2.305 5.188-3.76.694-.56.926-.818 1.157-1.076.462-.269.925-.538 1.888-1.057 1.42-1.113 2.34-1.977 3.26-2.84 0 0 .337-.16.703-.32.69-.297.9-.536.993-.876l2.99-1.877c.682-.533.916-.783 1.15-1.034.488-.225.976-.45 1.977-.958 2.757-1.8 5-3.316 7.245-4.833 0 0 .33-.085.746-.204.83-.493 1.245-.866 1.66-1.239 0 0 .063.022.428-.058 5.475-2.042 10.585-4.004 15.696-5.966.45-.02.901-.04 1.93-.036.751-.009.925-.04 1.099-.073.576.314 1.153.627 2.01 1.463-.899 2.513-2.08 4.504-3.26 6.495 0 0 .221.274-.235.163-2.1.99-3.744 2.093-5.389 3.195 0 0-.053-.04-.374.031-1.437 1.02-2.553 1.97-3.67 2.919 0 0-.059-.018-.383.077-2.546 2.03-4.769 3.966-6.99 5.902a511.253 511.253 0 01-5.866 4.715 82.548 82.548 0 00-3.256 3 142.212 142.212 0 01-3.58 3.222c-.722.486-.886.751-.913 1.101 0 0-.06-.02-.29.074-.536.27-.715.533-.764.883-.326.104-.596.29-1.169.854-.523.579-.687.861-.851 1.143-.298.143-.548.344-1.129.873-.536.557-.696.844-.855 1.131-1.206 1.211-2.412 2.422-4.097 4.017-2.267 2.597-4.054 4.81-5.84 7.024-.374.365-.748.73-1.525 1.474-1.122 1.413-1.841 2.448-2.56 3.483 0 0-.012-.005-.238.094-.504.33-.624.625-.585.985 0 0-.083.017-.372.204-3.816 5.004-7.343 9.82-10.87 14.636-.35.385-.7.77-1.429 1.585-1.71 2.464-3.042 4.497-4.373 6.53 0 0-.269.238-.553.573-.377.683-.47 1.033-.565 1.382-.347.414-.693.827-1.4 1.694-2.798 4.725-5.236 8.996-7.675 13.268-.203.26-.363.543-.81 1.258a24.882 24.882 0 00-1.302 2.651s.161.136-.195.266c-2.463 4.7-4.57 9.27-6.677 13.84 0 0 .033.029-.245.22-.728 1.408-1.18 2.627-1.63 3.846 0 0-.21.297-.448.641-.294.684-.35 1.024-.404 1.364-.463.98-.925 1.958-1.703 3.498-1.7 4.535-3.085 8.51-4.47 12.485-.204.265-.358.557-.757 1.378-5.11 17.755-10.71 34.838-14.49 52.314-3 13.875-3.772 28.232-5.534 42.374-.072.73-.144 1.461-.356 2.927-.258 21.032-.48 41.33-.417 61.626.014 4.784.992 9.564 1.527 14.346.005.438.01.877-.003 2.03.316 2.8.651 4.885.986 6.97.04.739.081 1.478.135 2.995 2.317 12.845 4.62 24.912 6.924 36.98z"></path>
	<path fill="#117ACE" d="M345.923 497.965c.017 5.37.035 10.74-.157 16.953-2.456 22.763.707 44.416 3.978 65.918 2.315 15.216 6.322 30.23 10.397 45.108 3.538 12.913 8.097 25.557 12.479 38.225 2.003 5.793 4.46 11.455 7.08 17.003 4.035 8.545 8.374 16.947 12.61 25.397 2.589 5.167 5.225 10.31 7.84 15.463l-1.158.715c-1.016-1.216-2.177-2.338-3.025-3.661-8.593-13.41-17.771-26.5-25.504-40.391-6.996-12.569-12.932-25.809-18.323-39.162-3.773-9.344-5.95-19.346-8.644-29.108-2.994-10.848-6.538-21.624-8.44-32.673-2.425-14.079-4.38-28.366-4.884-42.622-1.33-37.49.206-74.763 8.642-111.649 5.45-23.83 14.2-46.365 22.937-68.996.533-1.38 1.432-2.624 2.2-3.907 5.033-8.412 9.907-16.925 15.183-25.181 3.063-4.794 6.778-9.172 10.2-13.736l1.92 1.069c-1.93 4.185-3.782 8.41-5.804 12.55-13.037 26.692-23.053 54.459-29.486 83.467-3.092 13.94-6.63 27.864-8.391 41.992-1.805 14.487-1.706 29.214-2.37 43.84-.05 1.115.467 2.257.72 3.386z"></path>
	<path fill="#117ACE" d="M346.033 497.576c-.363-.74-.88-1.882-.83-2.998.664-14.625.565-29.352 2.37-43.84 1.76-14.127 5.3-28.051 8.39-41.991 6.434-29.008 16.45-56.775 29.487-83.466 2.022-4.141 3.873-8.366 5.804-12.551l-1.92-1.07c-3.422 4.565-7.137 8.943-10.2 13.737-5.276 8.256-10.15 16.77-15.183 25.18-.768 1.284-1.667 2.528-2.2 3.908-8.737 22.631-17.487 45.166-22.937 68.996-8.436 36.886-9.971 74.158-8.642 111.65.505 14.255 2.46 28.542 4.883 42.62 1.903 11.05 5.447 21.826 8.441 32.674 2.695 9.762 4.871 19.764 8.644 29.108 5.391 13.353 11.327 26.593 18.323 39.162 7.733 13.892 16.91 26.981 25.504 40.391.848 1.323 2.009 2.445 3.025 3.66.386-.237.771-.475 1.157-.714-2.614-5.153-5.25-10.296-7.84-15.463-4.235-8.45-8.574-16.852-12.61-25.397-2.62-5.548-5.076-11.21-7.08-17.003-4.381-12.668-8.94-25.312-12.478-38.225-4.075-14.878-8.082-29.892-10.397-45.108-3.271-21.502-6.434-43.155-4.03-65.452 2.287 20.978 3.923 42.399 6.671 63.676 3.38 26.174 10.45 51.517 19.449 76.32 8.882 24.486 20.11 47.86 33.124 70.405 1.225 2.123 1.845 4.595 2.747 6.905l-1.38.912c-1.414-1.221-3.006-2.288-4.216-3.685-19.454-22.464-34.775-47.546-46.355-74.843-23.975-56.514-31.544-115.597-27.265-176.54 3.139-44.7 13.656-87.472 33.28-127.774 9.804-20.133 22.592-38.442 37.818-54.956 1.176-1.275 2.547-2.37 4.569-3.126-16.406 31.883-32.475 63.809-41.618 98.6-9.125 34.727-15.308 69.928-16.505 106.298z"></path>
</svg></svg></g></g><defs><clipPath id="SvgjsClipPath1069"><rect width="1000" height="1000" x="0" y="0" rx="200" ry="200"></rect></clipPath></defs></svg>